<svg data-v-423bf9ae="" xmlns="http://www.w3.org/2000/svg" viewBox="0 0 7807 8452" class="iconLeft"><!----><!----><!----><g data-v-423bf9ae="" id="61b4d102-e26c-460d-9127-90d901f6724d" fill="black" transform="matrix(6.32244483109513,0,0,6.32244483109513,7704.4130663540145,4173.174541480267)"><path d="M7.60 6.27L6.09 6.27Q5.99 5.08 4.70 5.08L4.70 5.08Q4.07 5.08 3.70 5.36Q3.32 5.64 3.28 6.04Q3.23 6.44 3.44 6.66Q3.65 6.87 4.12 7.07L4.12 7.07L5.84 7.85Q6.72 8.26 7.15 8.86Q7.57 9.45 7.49 10.35L7.49 10.35Q7.38 11.61 6.47 12.32Q5.56 13.03 4.00 13.03L4.00 13.03Q2.63 13.03 1.85 12.29L1.85 12.29Q0.97 11.45 1.08 9.98L1.08 9.98L2.60 9.98Q2.53 10.75 2.99 11.11Q3.44 11.47 4.13 11.47Q4.82 11.47 5.27 11.19Q5.73 10.91 5.78 10.43Q5.82 9.95 5.61 9.71Q5.40 9.46 4.90 9.24L4.90 9.24L3.32 8.51Q2.39 8.11 1.95 7.55Q1.50 7.00 1.58 6.03L1.58 6.03Q1.69 4.91 2.56 4.24L2.56 4.24Q3.44 3.54 4.84 3.54Q6.24 3.54 6.93 4.26Q7.62 4.98 7.60 6.27L7.60 6.27ZM9.00 12.84L9.13 11.37L14 5.29L9.70 5.29L9.86 3.72L16.09 3.72L15.93 5.18L11.09 11.27L15.36 11.27L15.23 12.84L9.00 12.84Z"></path></g><!----><g data-v-423bf9ae="" id="4c80cfb1-ca2f-44bc-b11c-5f96aa93385c" transform="matrix(9.690265570746528,0,0,9.690265570746528,-998.5483432303909,-619.8734588838697)" stroke="none" fill="black"><path d="M371 409c-30.6 0-55.5 24.6-56 55.1-14.4 7.7-28.5 15-42.8 22-12.3 6.1-15.5 13.7-15.8 26.5-1.5 62.1-3.9 124.2-6 186.3-.4 12.7-.8 25.4-1.4 42.7-13.2-7.5-21.8-13.5-31.2-17.6-25.8-11.2-34.5-29.1-31.8-57.7 4.2-43.6 3.7-87.6 5.3-135.5-13.7 6.9-23.3 13-33.7 16.7-20.9 7.4-27 21.3-26.6 43 .6 38.4-.9 76.9-3.8 115.1-1.6 21.2 3 34.8 23.2 45.1 25.3 13 48.7 29.8 73 44.8 25.3 15.7 50.7 31.3 79.7 49.2.5-13.7.8-22.5 1-31.2 2.7-79.2 7.1-158.5 7.1-237.7 0-29.9 6.4-50.5 31.3-62.7 8.4 5 18.2 7.9 28.6 7.9 30.9 0 56-25.1 56-56s-25.2-56-56.1-56zm0 87h-.4c-16.9-.2-30.5-14-30.5-31 0-6.3 1.9-12.1 5.1-17 5.5-8.4 15.1-14 25.9-14h.1c2.9 0 5.6.4 8.3 1.1 13 3.7 22.6 15.7 22.6 29.9-.1 17.1-14 31-31.1 31z"></path><path d="M462 307c-11 0-21.2 3.2-29.9 8.7-10.7-6.9-21.1-13.8-31.5-20.8-11.3-7.7-19.6-6.8-30.9-.8-54.8 29.2-110.1 57.5-165.3 86.1-11.3 5.9-22.5 11.7-37.9 19.7.1-15.2 1.1-25.6.1-35.8-2.9-27.9 8.4-44.4 34.7-56 40-17.7 78.1-39.7 120.7-61.8-12.7-8.6-22.7-13.9-31.1-21.2-16.7-14.6-31.8-13.1-50.5-2.1-33.1 19.4-67.4 36.9-102.2 53.1-19.2 9-28.9 19.7-28 42.3 1.1 28.5-2.1 57-3.3 85.6-1.3 29.8-2.4 59.6-3.8 93.6 12.1-6.3 19.9-10.3 27.7-14.4 70.3-36.5 141.6-71.5 210.6-110.4 24-13.5 43.7-18.4 64.5-6.9 1.4 29.6 26 53.3 55.9 53.3 30.9 0 56-25.1 56-56S492.9 307 462 307zm30.9 58.8c-1.4 15.8-14.7 28.2-30.9 28.2-8.3 0-15.9-3.3-21.5-8.7-5.9-5.6-9.5-13.6-9.5-22.3 0-15.8 11.8-28.8 27.1-30.8 1.3-.2 2.6-.3 3.9-.3 13.7 0 25.4 9 29.5 21.4 1 3 1.5 6.3 1.5 9.6 0 1 0 2-.1 2.9zM677 824.7c-67.8-41.2-134.6-83.9-203.7-122.7-25.9-14.6-40.7-30.1-39.3-57.4 18.8-9 31.8-28.3 31.8-50.5 0-30.9-25.1-56-56-56s-56 25.1-56 56c0 19.1 9.6 35.9 24.2 46-.4 17.7-.9 34.8-1.8 51.8-.7 13.7 4.3 20.3 15.3 26.8 53.4 31.7 106.3 64.3 159.4 96.5 10.8 6.6 21.7 13.2 36.5 22.2-13 7.8-22.5 12.3-30.6 18.5-22.4 17-42.3 15.8-65.9-.6-35.9-25-74.5-46.1-115.5-71-.7 15.3-.1 26.7-2 37.6-3.8 21.8 5.3 33.9 24.4 44.3 33.7 18.3 66.5 38.5 98.5 59.8 17.7 11.8 31.8 14.4 50.7 1.9 23.8-15.7 49.9-27.8 74.9-41.6 26.1-14.4 52.2-28.8 82-45.3-11.9-7.2-19.4-11.8-26.9-16.3zM409.8 625.1c-16.7 0-30.4-13.3-31-29.9v-1.1c0-.7 0-1.3.1-2v-.2c.5-6.6 3-12.6 6.9-17.4 5.7-7 14.3-11.4 24-11.4 17.1 0 31 13.9 31 31 0 7.4-2.6 14.3-7 19.6-5.8 7-14.4 11.4-24 11.4z"></path><path d="M896.8 489.8c-11.9 6.7-19.6 11-27.2 15.3-69.1 38.9-139.1 76.2-206.8 117.4-24.6 15-44.9 20.4-67.3 7.4.2-1.9.3-3.8.3-5.8 0-30.9-25.1-56-56-56s-56 25.1-56 56 25.1 56 56 56c8 0 15.6-1.7 22.5-4.7 15.1 9 29.7 17.8 44.1 26.9 11.6 7.3 19.8 6.2 30.9-.2 53.8-31 108.1-61.2 162.3-91.6 11.1-6.2 22.1-12.5 37.2-20.9.4 15.2-.3 25.6 1.1 35.8 3.8 27.8-6.9 44.6-32.8 57.2-39.4 19.1-76.7 42.3-118.5 65.9 13 8.1 23.2 13.2 31.8 20.2 17.2 14 32.2 12 50.5.4 32.4-20.5 66.1-39.2 100.4-56.5 18.9-9.6 28.2-20.7 26.5-43.2-2-28.4.2-57.1.4-85.7.2-30.1.3-59.9.6-93.9zm-357 165.3c-13.2 0-24.5-8.3-29-20-1.3-3.4-2-7.1-2-11 0-17.1 13.9-31 31-31 13.7 0 25.4 9 29.5 21.3 1 3 1.5 6.3 1.5 9.7 0 17.1-14 31-31 31z"></path><path d="M865.9 397.8c-1.9-38.3-1.7-76.8-.1-115.2.9-21.2-4.2-34.7-24.7-44.3-25.8-12.1-49.7-28.1-74.5-42.4-25.8-14.9-51.8-29.6-81.3-46.5v31.3c0 79.3-1.8 158.6.9 237.8 1 28-4 48-24.7 61.1-8.2-4.7-17.8-7.5-27.9-7.5-30.9 0-56 25.1-56 56s25.1 56 56 56 56-25.1 56-55.9c12.9-7.4 25.6-14.6 38.5-21.4 12.1-6.5 15.1-14.2 14.9-27-.6-62.1-.3-124.2-.3-186.3v-42.7c13.4 7.1 22.2 12.8 31.7 16.5 26.1 10.3 35.5 27.9 33.7 56.6-2.7 43.7-.7 87.6-.7 135.6 13.4-7.3 22.8-13.8 33.2-17.8 20.8-8.2 26.4-22.3 25.3-43.9zM659.1 545.9c-5.1 7.2-13.1 12.1-22.3 13-1 .1-2 .1-3 .1-3.9 0-7.6-.7-11-2-11.7-4.4-20-15.8-20-29 0-16.6 13.1-30.2 29.5-31h1.5c17.1 0 31 13.9 31 31 0 6.7-2.1 12.9-5.7 17.9z"></path><path d="M627.3 356.9c.9-14.9 1.9-29.5 3.1-44 1.2-13.6-3.6-20.4-14.4-27.3-52.3-33.5-104.1-67.8-156.1-101.8-10.6-7-21.3-13.9-35.7-23.4 13.3-7.4 22.9-11.6 31.2-17.5 23-16.2 42.8-14.4 65.9 2.8 35.1 26.2 72.9 48.6 113 74.9 1.2-15.3 1-26.6 3.3-37.5 4.5-21.7-4.2-34.1-22.9-45-33.1-19.4-65.2-40.7-96.4-63-17.2-12.4-31.3-15.5-50.6-3.6-24.3 14.9-50.8 26.2-76.2 39.1-26.6 13.5-53.1 27.1-83.4 42.5 11.4 7.5 18.8 12.3 26.2 17.1 66.3 43.4 131.7 88.4 199.5 129.5 24.1 14.7 38.2 29.9 37.6 54.7-17.9 9.3-30.2 28.1-30.2 49.7 0 30.9 25.1 56 56 56s56-25.1 56-56c-.2-19.8-10.5-37.2-25.9-47.2zm-3.3 62.4c-2.2 3.8-5.1 7.1-8.7 9.7-5.1 3.8-11.5 6-18.3 6-17.1 0-31-13.9-31-31 0-5.6 1.5-10.8 4-15.3 5.3-9.4 15.4-15.7 27-15.7 12.7 0 23.6 7.6 28.4 18.6 1.7 3.8 2.6 8 2.6 12.4 0 5.6-1.5 10.8-4 15.3z"></path></g><!----></svg>