<svg data-v-423bf9ae="" xmlns="http://www.w3.org/2000/svg" viewBox="0 0 92.11267556986601 60" class="font"><!----><!----><!----><g data-v-423bf9ae="" id="36a4d34c-7092-4d90-bc82-34df690cc51b" fill="black" transform="matrix(6.036217558641619,0,0,6.036217558641619,-6.760562573106398,-30.241450873537914)"><path d="M1.26 9.70L2.88 10.64L6.37 10.64L6.37 13.69L2.52 13.69L2.52 12.57L1.12 12.57L1.12 14.01L2.74 14.95L6.15 14.95L7.77 14.01L7.77 10.18L6.15 9.24L2.66 9.24L2.66 6.27L6.37 6.27L6.37 7.39L7.77 7.39L7.77 5.95L6.15 5.01L2.88 5.01L1.26 5.95ZM10.01 6.34L14.56 6.34L14.56 6.37L9.73 14.04L9.73 14.88L16.38 14.88L16.38 13.62L11.55 13.62L11.55 13.59L16.38 5.92L16.38 5.08L10.01 5.08Z"></path></g><!----><!----></svg>