<svg data-v-fde0c5aa="" xmlns="http://www.w3.org/2000/svg" viewBox="0 0 300 300" class="font"><!----><defs data-v-fde0c5aa=""><linearGradient data-v-fde0c5aa="" gradientTransform="rotate(25)" id="cb486c4a-4e7a-45dd-b54f-2fb030ff99a3" x1="0%" y1="0%" x2="100%" y2="0%"><stop data-v-fde0c5aa="" offset="0%" stop-color="#4B279B" stop-opacity="1"></stop><stop data-v-fde0c5aa="" offset="100%" stop-color="#DF99D8" stop-opacity="1"></stop></linearGradient></defs><rect data-v-fde0c5aa="" fill="url(#cb486c4a-4e7a-45dd-b54f-2fb030ff99a3)" x="0" y="0" width="300px" height="300px" class="logo-background-square"></rect><defs data-v-fde0c5aa=""><!----></defs><g data-v-fde0c5aa="" id="197c802d-2c1e-48c8-814e-10ad9288208b" fill="#ffffff" transform="matrix(14.644970124953481,0,0,14.644970124953481,24.36242496322041,28.6664247494055)"><path d="M7.60 6.27L6.09 6.27Q5.99 5.08 4.70 5.08L4.70 5.08Q4.07 5.08 3.70 5.36Q3.32 5.64 3.28 6.04Q3.23 6.44 3.44 6.66Q3.65 6.87 4.12 7.07L4.12 7.07L5.84 7.85Q6.72 8.26 7.15 8.86Q7.57 9.45 7.49 10.35L7.49 10.35Q7.38 11.61 6.47 12.32Q5.56 13.03 4.00 13.03L4.00 13.03Q2.63 13.03 1.85 12.29L1.85 12.29Q0.97 11.45 1.08 9.98L1.08 9.98L2.60 9.98Q2.53 10.75 2.99 11.11Q3.44 11.47 4.13 11.47Q4.82 11.47 5.27 11.19Q5.73 10.91 5.78 10.43Q5.82 9.95 5.61 9.71Q5.40 9.46 4.90 9.24L4.90 9.24L3.32 8.51Q2.39 8.11 1.95 7.55Q1.50 7.00 1.58 6.03L1.58 6.03Q1.69 4.91 2.56 4.24L2.56 4.24Q3.44 3.54 4.84 3.54Q6.24 3.54 6.93 4.26Q7.62 4.98 7.60 6.27L7.60 6.27ZM9.00 12.84L9.13 11.37L14 5.29L9.70 5.29L9.86 3.72L16.09 3.72L15.93 5.18L11.09 11.27L15.36 11.27L15.23 12.84L9.00 12.84Z"></path></g><!----><!----></svg>