<svg data-v-fde0c5aa="" xmlns="http://www.w3.org/2000/svg" viewBox="0 0 300 300" class="font"><!----><defs data-v-fde0c5aa=""><linearGradient data-v-fde0c5aa="" gradientTransform="rotate(25)" id="e4499de1-1f90-495a-b354-a31953a3c2d2" x1="0%" y1="0%" x2="100%" y2="0%"><stop data-v-fde0c5aa="" offset="0%" stop-color="#021802" stop-opacity="1"></stop><stop data-v-fde0c5aa="" offset="100%" stop-color="#60DBCC" stop-opacity="1"></stop></linearGradient></defs><rect data-v-fde0c5aa="" fill="url(#e4499de1-1f90-495a-b354-a31953a3c2d2)" x="0" y="0" width="300px" height="300px" class="logo-background-square"></rect><defs data-v-fde0c5aa=""><!----></defs><g data-v-fde0c5aa="" id="a4067aad-58d0-4a50-a2b1-363633bdae77" fill="#ffffff" transform="matrix(14.41677656940834,0,0,14.41677656940834,23.85321017351811,6.12056956232658)"><path d="M1.26 9.70L2.88 10.64L6.37 10.64L6.37 13.69L2.52 13.69L2.52 12.57L1.12 12.57L1.12 14.01L2.74 14.95L6.15 14.95L7.77 14.01L7.77 10.18L6.15 9.24L2.66 9.24L2.66 6.27L6.37 6.27L6.37 7.39L7.77 7.39L7.77 5.95L6.15 5.01L2.88 5.01L1.26 5.95ZM10.01 6.34L14.56 6.34L14.56 6.37L9.73 14.04L9.73 14.88L16.38 14.88L16.38 13.62L11.55 13.62L11.55 13.59L16.38 5.92L16.38 5.08L10.01 5.08Z"></path></g><!----><!----></svg>